<svg width="1000" height="1415" viewBox="0 0 1000 1415" fill="none" xmlns="http://www.w3.org/2000/svg">
<g filter="url(#filter0_f_2_537)">
<circle cx="720.5" cy="691.5" r="446.5" fill="url(#paint0_linear_2_537)"/>
</g>
<g filter="url(#filter1_f_2_537)">
<circle cx="470" cy="470" r="470" transform="matrix(0.866006 -0.500035 0.499966 0.866045 -350 846)" fill="url(#paint1_linear_2_537)"/>
</g>
<g filter="url(#filter2_f_2_537)">
<circle cx="412.5" cy="412.5" r="412.5" transform="matrix(0.692436 0.721479 -0.721415 0.692503 679 -412)" fill="url(#paint2_linear_2_537)"/>
</g>
<g filter="url(#filter3_f_2_537)">
<path d="M557.845 256.655C632.292 367.901 536.36 378.886 425.061 453.382C313.762 527.878 229.244 637.673 154.797 526.428C80.3507 415.182 110.225 264.609 221.524 190.114C332.823 115.618 483.399 145.41 557.845 256.655Z" fill="#FA3A3A"/>
</g>
<g filter="url(#filter4_f_2_537)">
<ellipse cx="182" cy="-95.5" rx="461" ry="536.5" fill="#8BBFFE"/>
</g>
<g filter="url(#filter5_f_2_537)">
<path d="M502.82 51.8219C557.102 106.431 433.235 193.701 267.955 358.021C102.674 522.342 -41.4327 701.487 -95.7143 646.878C-149.996 592.269 -60.0134 414.792 105.267 250.472C270.548 86.1514 448.539 -2.78712 502.82 51.8219Z" fill="#FFEBEB"/>
</g>
<g filter="url(#filter6_f_2_537)">
<path d="M548.393 241.945C597.484 301.265 472.328 371.83 302.361 512.514C132.393 653.198 -18.024 810.727 -67.1143 751.407C-116.205 692.088 -18.2139 529.953 151.754 389.269C321.722 248.585 499.303 182.626 548.393 241.945Z" fill="#6472EA"/>
</g>
<g filter="url(#filter7_f_2_537)">
<path d="M461.002 164.72C486.68 195.749 369.261 275.662 199.293 416.346C29.3252 557.03 -128.828 705.211 -154.506 674.182C-180.184 643.154 -63.2139 503.953 106.754 363.269C276.722 222.585 435.324 133.692 461.002 164.72Z" fill="#9F64EA"/>
</g>
<g filter="url(#filter8_f_2_537)">
<ellipse cx="433" cy="773" rx="433" ry="419" fill="#FFB8F8"/>
</g>
<g filter="url(#filter9_f_2_537)">
<ellipse cx="865.5" cy="1366" rx="577.5" ry="419" fill="#68D2FF"/>
</g>
<g filter="url(#filter10_f_2_537)">
<path d="M371.995 737.145C150.848 728.061 33.0096 463.93 1.73372 333C-34.0302 414.306 -94.9551 630.831 -52.5433 846.487C0.471466 1116.06 471.293 1108.49 919.394 1157.69C1277.87 1197.05 1310.55 723.267 1282.08 481.453C1249.4 466.874 1135.49 442.594 941.273 462.108C698.499 486.499 648.429 748.5 371.995 737.145Z" fill="url(#paint3_radial_2_537)"/>
</g>
<g filter="url(#filter11_f_2_537)">
<path d="M371.995 779.145C150.848 770.061 33.0096 505.93 1.73372 375C-34.0302 456.306 -94.9551 672.831 -52.5433 888.487C0.471466 1158.06 471.293 1150.49 919.394 1199.69C1277.87 1239.05 1310.55 765.267 1282.08 523.453C1249.4 508.874 1135.49 484.594 941.273 504.108C698.499 528.499 648.429 790.5 371.995 779.145Z" fill="url(#paint4_radial_2_537)"/>
</g>
<g style="mix-blend-mode:lighten" filter="url(#filter12_f_2_537)">
<path d="M363.999 1049.96C539.855 774.772 734.223 890.065 973.186 1061.74L1136 1472H-41.5648C-85.8795 1431.61 -154.315 1351.57 -73.5387 1354.6C27.4315 1358.39 188.142 1325.15 363.999 1049.96Z" fill="url(#paint5_radial_2_537)"/>
</g>
<g filter="url(#filter13_f_2_537)">
<path d="M1146 683.608C1082.62 655.415 919.508 618.721 774.122 697.494C592.39 795.96 585.659 845.193 263 987" stroke="url(#paint6_linear_2_537)" stroke-width="53.8313" stroke-linecap="round"/>
</g>
<g filter="url(#filter14_f_2_537)">
<path d="M139 650C190.484 709.265 321.145 811.021 431.914 743.929C542.682 676.837 578.791 653.355 583 650" stroke="url(#paint7_linear_2_537)" stroke-width="33.6446" stroke-linecap="round"/>
</g>
<g filter="url(#filter15_f_2_537)">
<path d="M707 811C736.735 777.136 835.589 694.908 946 674" stroke="url(#paint8_linear_2_537)" stroke-width="8.41114" stroke-linecap="round"/>
</g>
<g filter="url(#filter16_f_2_537)">
<path d="M492.95 60C535.584 77.1176 604.022 129.2 536.706 200.589C469.389 271.978 390.853 367.275 360 406" stroke="url(#paint9_linear_2_537)" stroke-width="20.1867" stroke-linecap="round"/>
</g>
<g filter="url(#filter17_f_2_537)">
<path d="M503.037 353C565.266 287.03 706.962 57.6078 593.016 -16.3454C501.86 -75.5078 433.66 -43.9377 379 -40.7162" stroke="url(#paint10_linear_2_537)" stroke-width="42.0557" stroke-linecap="round"/>
</g>
<g opacity="0.5" filter="url(#filter18_f_2_537)">
<path d="M426.754 115C512.738 115 518.525 154.943 444.79 239.034C398.484 291.843 371.668 327.049 363 337" stroke="url(#paint11_linear_2_537)" stroke-width="13.4578" stroke-linecap="round"/>
</g>
<g filter="url(#filter19_f_2_537)">
<path d="M-122 546C-105.172 579.893 137.31 841.919 230.117 859.44C368.103 885.49 426.159 859.44 488 823.726" stroke="url(#paint12_linear_2_537)" stroke-width="30.2801" stroke-linecap="round"/>
</g>
<g filter="url(#filter20_f_2_537)">
<path d="M1000 -349C998.739 -295.27 1000 -74.1795 961.333 55.8657C923.985 181.478 841.13 339.524 681.841 438.426C572.145 506.535 460.348 563 391 563" stroke="url(#paint13_linear_2_537)" stroke-width="78.2236" stroke-linecap="round"/>
</g>
<g style="mix-blend-mode:color-burn" filter="url(#filter21_f_2_537)">
<path d="M1000 -349C998.739 -295.27 1000 -74.1795 961.333 55.8657C923.985 181.478 841.13 339.524 681.841 438.426C572.145 506.535 460.348 563 391 563" stroke="url(#paint14_linear_2_537)" stroke-width="78.2236" stroke-linecap="round"/>
</g>
<g filter="url(#filter22_f_2_537)">
<path d="M-374 385C-335.727 435.009 -22.811 710.267 100 767" stroke="url(#paint15_linear_2_537)" stroke-width="33.6446" stroke-linecap="round"/>
</g>
<defs>
<filter id="filter0_f_2_537" x="-169.44" y="-198.44" width="1779.88" height="1779.88" filterUnits="userSpaceOnUse" color-interpolation-filters="sRGB">
<feFlood flood-opacity="0" result="BackgroundImageFix"/>
<feBlend mode="normal" in="SourceGraphic" in2="BackgroundImageFix" result="shape"/>
<feGaussianBlur stdDeviation="221.72" result="effect1_foregroundBlur_2_537"/>
</filter>
<filter id="filter1_f_2_537" x="-645.203" y="80.783" width="1874.42" height="1874.48" filterUnits="userSpaceOnUse" color-interpolation-filters="sRGB">
<feFlood flood-opacity="0" result="BackgroundImageFix"/>
<feBlend mode="normal" in="SourceGraphic" in2="BackgroundImageFix" result="shape"/>
<feGaussianBlur stdDeviation="233.574" result="effect1_foregroundBlur_2_537"/>
</filter>
<filter id="filter2_f_2_537" x="-155.121" y="-650.938" width="1644.33" height="1644.41" filterUnits="userSpaceOnUse" color-interpolation-filters="sRGB">
<feFlood flood-opacity="0" result="BackgroundImageFix"/>
<feBlend mode="normal" in="SourceGraphic" in2="BackgroundImageFix" result="shape"/>
<feGaussianBlur stdDeviation="204.843" result="effect1_foregroundBlur_2_537"/>
</filter>
<filter id="filter3_f_2_537" x="-306.712" y="-271.461" width="1311.43" height="1265.82" filterUnits="userSpaceOnUse" color-interpolation-filters="sRGB">
<feFlood flood-opacity="0" result="BackgroundImageFix"/>
<feBlend mode="normal" in="SourceGraphic" in2="BackgroundImageFix" result="shape"/>
<feGaussianBlur stdDeviation="210.279" result="effect1_foregroundBlur_2_537"/>
</filter>
<filter id="filter4_f_2_537" x="-408.532" y="-761.532" width="1181.06" height="1332.06" filterUnits="userSpaceOnUse" color-interpolation-filters="sRGB">
<feFlood flood-opacity="0" result="BackgroundImageFix"/>
<feBlend mode="normal" in="SourceGraphic" in2="BackgroundImageFix" result="shape"/>
<feGaussianBlur stdDeviation="64.7658" result="effect1_foregroundBlur_2_537"/>
</filter>
<filter id="filter5_f_2_537" x="-279.749" y="-132.486" width="963.728" height="957.594" filterUnits="userSpaceOnUse" color-interpolation-filters="sRGB">
<feFlood flood-opacity="0" result="BackgroundImageFix"/>
<feBlend mode="normal" in="SourceGraphic" in2="BackgroundImageFix" result="shape"/>
<feGaussianBlur stdDeviation="84.1114" result="effect1_foregroundBlur_2_537"/>
</filter>
<filter id="filter6_f_2_537" x="-247.999" y="51.9326" width="975.381" height="880.544" filterUnits="userSpaceOnUse" color-interpolation-filters="sRGB">
<feFlood flood-opacity="0" result="BackgroundImageFix"/>
<feBlend mode="normal" in="SourceGraphic" in2="BackgroundImageFix" result="shape"/>
<feGaussianBlur stdDeviation="84.1114" result="effect1_foregroundBlur_2_537"/>
</filter>
<filter id="filter7_f_2_537" x="-326.264" y="-9.68002" width="959.012" height="856.245" filterUnits="userSpaceOnUse" color-interpolation-filters="sRGB">
<feFlood flood-opacity="0" result="BackgroundImageFix"/>
<feBlend mode="normal" in="SourceGraphic" in2="BackgroundImageFix" result="shape"/>
<feGaussianBlur stdDeviation="84.1114" result="effect1_foregroundBlur_2_537"/>
</filter>
<filter id="filter8_f_2_537" x="-420.557" y="-66.557" width="1707.11" height="1679.11" filterUnits="userSpaceOnUse" color-interpolation-filters="sRGB">
<feFlood flood-opacity="0" result="BackgroundImageFix"/>
<feBlend mode="normal" in="SourceGraphic" in2="BackgroundImageFix" result="shape"/>
<feGaussianBlur stdDeviation="210.279" result="effect1_foregroundBlur_2_537"/>
</filter>
<filter id="filter9_f_2_537" x="-132.557" y="526.443" width="1996.11" height="1679.11" filterUnits="userSpaceOnUse" color-interpolation-filters="sRGB">
<feFlood flood-opacity="0" result="BackgroundImageFix"/>
<feBlend mode="normal" in="SourceGraphic" in2="BackgroundImageFix" result="shape"/>
<feGaussianBlur stdDeviation="210.279" result="effect1_foregroundBlur_2_537"/>
</filter>
<filter id="filter10_f_2_537" x="-235.223" y="164.777" width="1693.45" height="1163.45" filterUnits="userSpaceOnUse" color-interpolation-filters="sRGB">
<feFlood flood-opacity="0" result="BackgroundImageFix"/>
<feBlend mode="normal" in="SourceGraphic" in2="BackgroundImageFix" result="shape"/>
<feGaussianBlur stdDeviation="84.1114" result="effect1_foregroundBlur_2_537"/>
</filter>
<filter id="filter11_f_2_537" x="-159.523" y="282.477" width="1542.05" height="1012.05" filterUnits="userSpaceOnUse" color-interpolation-filters="sRGB">
<feFlood flood-opacity="0" result="BackgroundImageFix"/>
<feBlend mode="normal" in="SourceGraphic" in2="BackgroundImageFix" result="shape"/>
<feGaussianBlur stdDeviation="46.2613" result="effect1_foregroundBlur_2_537"/>
</filter>
<filter id="filter12_f_2_537" x="-215.298" y="780.702" width="1455.6" height="795.596" filterUnits="userSpaceOnUse" color-interpolation-filters="sRGB">
<feFlood flood-opacity="0" result="BackgroundImageFix"/>
<feBlend mode="normal" in="SourceGraphic" in2="BackgroundImageFix" result="shape"/>
<feGaussianBlur stdDeviation="52.1491" result="effect1_foregroundBlur_2_537"/>
</filter>
<filter id="filter13_f_2_537" x="131.779" y="518.78" width="1145.44" height="599.441" filterUnits="userSpaceOnUse" color-interpolation-filters="sRGB">
<feFlood flood-opacity="0" result="BackgroundImageFix"/>
<feBlend mode="normal" in="SourceGraphic" in2="BackgroundImageFix" result="shape"/>
<feGaussianBlur stdDeviation="52.1491" result="effect1_foregroundBlur_2_537"/>
</filter>
<filter id="filter14_f_2_537" x="59.935" y="570.935" width="602.13" height="274.134" filterUnits="userSpaceOnUse" color-interpolation-filters="sRGB">
<feFlood flood-opacity="0" result="BackgroundImageFix"/>
<feBlend mode="normal" in="SourceGraphic" in2="BackgroundImageFix" result="shape"/>
<feGaussianBlur stdDeviation="31.1212" result="effect1_foregroundBlur_2_537"/>
</filter>
<filter id="filter15_f_2_537" x="660.739" y="627.738" width="331.523" height="229.523" filterUnits="userSpaceOnUse" color-interpolation-filters="sRGB">
<feFlood flood-opacity="0" result="BackgroundImageFix"/>
<feBlend mode="normal" in="SourceGraphic" in2="BackgroundImageFix" result="shape"/>
<feGaussianBlur stdDeviation="21.0279" result="effect1_foregroundBlur_2_537"/>
</filter>
<filter id="filter16_f_2_537" x="257.384" y="-42.6186" width="410.233" height="551.235" filterUnits="userSpaceOnUse" color-interpolation-filters="sRGB">
<feFlood flood-opacity="0" result="BackgroundImageFix"/>
<feBlend mode="normal" in="SourceGraphic" in2="BackgroundImageFix" result="shape"/>
<feGaussianBlur stdDeviation="46.2613" result="effect1_foregroundBlur_2_537"/>
</filter>
<filter id="filter17_f_2_537" x="295.729" y="-135.236" width="423.541" height="571.506" filterUnits="userSpaceOnUse" color-interpolation-filters="sRGB">
<feFlood flood-opacity="0" result="BackgroundImageFix"/>
<feBlend mode="normal" in="SourceGraphic" in2="BackgroundImageFix" result="shape"/>
<feGaussianBlur stdDeviation="31.1212" result="effect1_foregroundBlur_2_537"/>
</filter>
<filter id="filter18_f_2_537" x="310.851" y="62.8509" width="237.299" height="326.298" filterUnits="userSpaceOnUse" color-interpolation-filters="sRGB">
<feFlood flood-opacity="0" result="BackgroundImageFix"/>
<feBlend mode="normal" in="SourceGraphic" in2="BackgroundImageFix" result="shape"/>
<feGaussianBlur stdDeviation="22.7101" result="effect1_foregroundBlur_2_537"/>
</filter>
<filter id="filter19_f_2_537" x="-216.208" y="451.792" width="798.415" height="512.413" filterUnits="userSpaceOnUse" color-interpolation-filters="sRGB">
<feFlood flood-opacity="0" result="BackgroundImageFix"/>
<feBlend mode="normal" in="SourceGraphic" in2="BackgroundImageFix" result="shape"/>
<feGaussianBlur stdDeviation="39.5324" result="effect1_foregroundBlur_2_537"/>
</filter>
<filter id="filter20_f_2_537" x="183.665" y="-556.335" width="1023.67" height="1326.67" filterUnits="userSpaceOnUse" color-interpolation-filters="sRGB">
<feFlood flood-opacity="0" result="BackgroundImageFix"/>
<feBlend mode="normal" in="SourceGraphic" in2="BackgroundImageFix" result="shape"/>
<feGaussianBlur stdDeviation="84.1114" result="effect1_foregroundBlur_2_537"/>
</filter>
<filter id="filter21_f_2_537" x="183.665" y="-556.335" width="1023.67" height="1326.67" filterUnits="userSpaceOnUse" color-interpolation-filters="sRGB">
<feFlood flood-opacity="0" result="BackgroundImageFix"/>
<feBlend mode="normal" in="SourceGraphic" in2="BackgroundImageFix" result="shape"/>
<feGaussianBlur stdDeviation="84.1114" result="effect1_foregroundBlur_2_537"/>
</filter>
<filter id="filter22_f_2_537" x="-491.757" y="267.243" width="709.517" height="617.517" filterUnits="userSpaceOnUse" color-interpolation-filters="sRGB">
<feFlood flood-opacity="0" result="BackgroundImageFix"/>
<feBlend mode="normal" in="SourceGraphic" in2="BackgroundImageFix" result="shape"/>
<feGaussianBlur stdDeviation="50.4668" result="effect1_foregroundBlur_2_537"/>
</filter>
<linearGradient id="paint0_linear_2_537" x1="902.983" y1="294.365" x2="689.994" y2="1196.24" gradientUnits="userSpaceOnUse">
<stop stop-color="#F49191"/>
<stop offset="1" stop-color="#B10E0E"/>
</linearGradient>
<linearGradient id="paint1_linear_2_537" x1="662.087" y1="51.9628" x2="437.888" y2="1001.3" gradientUnits="userSpaceOnUse">
<stop stop-color="#BC87FF"/>
<stop offset="1" stop-color="#0502A4"/>
</linearGradient>
<linearGradient id="paint2_linear_2_537" x1="581.087" y1="45.6056" x2="384.317" y2="878.804" gradientUnits="userSpaceOnUse">
<stop stop-color="#BC87FF"/>
<stop offset="1" stop-color="#0502A4"/>
</linearGradient>
<radialGradient id="paint3_radial_2_537" cx="0" cy="0" r="1" gradientUnits="userSpaceOnUse" gradientTransform="translate(497.379 574.394) rotate(83.4194) scale(403.862 662.677)">
<stop offset="0.245919" stop-color="#FF2E00"/>
<stop offset="1" stop-color="#3A54AF" stop-opacity="0"/>
</radialGradient>
<radialGradient id="paint4_radial_2_537" cx="0" cy="0" r="1" gradientUnits="userSpaceOnUse" gradientTransform="translate(497.379 616.394) rotate(83.4194) scale(403.862 662.677)">
<stop offset="0.245919" stop-color="#053CFD"/>
<stop offset="1" stop-color="#3A54AF" stop-opacity="0"/>
</radialGradient>
<radialGradient id="paint5_radial_2_537" cx="0" cy="0" r="1" gradientUnits="userSpaceOnUse" gradientTransform="translate(522.606 937.613) rotate(74.9724) scale(394.288 837.628)">
<stop stop-color="#FF42A5"/>
<stop offset="1" stop-color="#F497D3" stop-opacity="0"/>
</radialGradient>
<linearGradient id="paint6_linear_2_537" x1="952.489" y1="650.365" x2="274.698" y2="1004.94" gradientUnits="userSpaceOnUse">
<stop stop-color="#FCFCFC" stop-opacity="0"/>
<stop offset="0.469129" stop-color="#FAFAFA" stop-opacity="0.859579"/>
<stop offset="1" stop-color="#F0F0F0" stop-opacity="0"/>
</linearGradient>
<linearGradient id="paint7_linear_2_537" x1="602.359" y1="658.806" x2="249.976" y2="853.013" gradientUnits="userSpaceOnUse">
<stop stop-color="#FCFCFC" stop-opacity="0"/>
<stop offset="0.469129" stop-color="#FAFAFA" stop-opacity="0.859579"/>
<stop offset="1" stop-color="#F0F0F0" stop-opacity="0"/>
</linearGradient>
<linearGradient id="paint8_linear_2_537" x1="956.421" y1="684.4" x2="723.801" y2="742.832" gradientUnits="userSpaceOnUse">
<stop stop-color="#FCFCFC" stop-opacity="0"/>
<stop offset="0.469129" stop-color="#FAFAFA" stop-opacity="0.859579"/>
<stop offset="1" stop-color="#F0F0F0" stop-opacity="0"/>
</linearGradient>
<linearGradient id="paint9_linear_2_537" x1="526.187" y1="78.0997" x2="321.79" y2="134.963" gradientUnits="userSpaceOnUse">
<stop offset="0.00550889" stop-color="#AFCEFA"/>
<stop offset="1" stop-color="#DBEAFF"/>
</linearGradient>
<linearGradient id="paint10_linear_2_537" x1="632.96" y1="11.3869" x2="400.301" y2="103.072" gradientUnits="userSpaceOnUse">
<stop offset="0.00550889" stop-color="#61309E"/>
<stop offset="1" stop-color="#CA9ADD"/>
</linearGradient>
<linearGradient id="paint11_linear_2_537" x1="494.427" y1="149.745" x2="372.239" y2="195.205" gradientUnits="userSpaceOnUse">
<stop offset="0.00550889" stop-color="#61309E"/>
<stop offset="1" stop-color="#CA9ADD"/>
</linearGradient>
<linearGradient id="paint12_linear_2_537" x1="-35.7586" y1="725.829" x2="413.772" y2="925.825" gradientUnits="userSpaceOnUse">
<stop stop-color="#38116A"/>
<stop offset="1" stop-color="#38116A" stop-opacity="0"/>
</linearGradient>
<linearGradient id="paint13_linear_2_537" x1="426.867" y1="506.145" x2="426.57" y2="-20.2917" gradientUnits="userSpaceOnUse">
<stop stop-color="#9CC7F2"/>
<stop offset="1" stop-color="#E49CDD"/>
</linearGradient>
<linearGradient id="paint14_linear_2_537" x1="426.867" y1="506.145" x2="426.57" y2="-20.2917" gradientUnits="userSpaceOnUse">
<stop stop-color="#9CC7F2"/>
<stop offset="1" stop-color="#E49CDD"/>
</linearGradient>
<linearGradient id="paint15_linear_2_537" x1="-69.9167" y1="611.09" x2="58.9928" y2="525.388" gradientUnits="userSpaceOnUse">
<stop stop-color="#DDEEFF"/>
<stop offset="0.973456" stop-color="#F3DBF1"/>
</linearGradient>
</defs>
</svg>
